<?xml version="1.0" encoding="iso-8859-1"?>
<!-- Generator: Adobe Illustrator 25.4.1, SVG Export Plug-In . SVG Version: 6.00 Build 0)  -->
<svg version="1.1" baseProfile="basic" id="Layer_1"
	 xmlns="http://www.w3.org/2000/svg" xmlns:xlink="http://www.w3.org/1999/xlink" x="0px" y="0px" viewBox="0 0 50 50"
	 xml:space="preserve">
<path d="M29.509,21.545c2.52,0,4.562,2.042,4.562,4.562c0,0,0,3.362,0,5.038c0,0.512-0.415,0.927-0.927,0.927
	c-0.306,0-0.646,0-0.953,0c-0.512,0-0.927-0.415-0.927-0.927v-4.336c0-1.351-1.105-2.456-2.456-2.456s-2.456,1.105-2.456,2.456
	c0,0,0,2.826,0,4.336c0,0.512-0.415,0.927-0.927,0.927c-0.306,0-0.646,0-0.953,0c-0.512,0-0.927-0.415-0.927-0.927
	c0-1.996,0-6.677,0-8.673c0-0.512,0.415-0.927,0.927-0.927c0.306,0,0.646,0,0.953,0c0.512,0,0.927,0.415,0.927,0.927v0.347
	C27.171,22.032,28.283,21.545,29.509,21.545z"/>
<path d="M20.737,22.485c0,1.998,0,6.649,0,8.647c0,0.519-0.421,0.94-0.94,0.94c-0.298,0-0.629,0-0.927,0
	c-0.519,0-0.94-0.421-0.94-0.94c0-1.998,0-6.649,0-8.647c0-0.519,0.421-0.94,0.94-0.94c0.298,0,0.629,0,0.927,0
	C20.316,21.545,20.737,21.966,20.737,22.485z"/>
<path style="fill-rule:evenodd;clip-rule:evenodd;" d="M19.333,16.633c0.775,0,1.404,0.629,1.404,1.404s-0.629,1.404-1.404,1.404
	c-0.775,0-1.404-0.629-1.404-1.404S18.558,16.633,19.333,16.633z"/>
<path d="M25,41c-8.822,0-16-7.178-16-16S16.178,9,25,9s16,7.178,16,16S33.822,41,25,41z M25.021,10.003c-8.271,0-15,6.729-15,15
	s6.729,15,15,15s15-6.729,15-15S33.291,10.003,25.021,10.003z"/>
</svg>